<svg xmlns="http://www.w3.org/2000/svg" width="32" height="32" viewBox="0 0 48 48">
  <path d="M24 24C20 18 12 10 8 14C4 18 8 28 16 32C20 34 24 24 24 24Z" fill="#55204F" opacity="0.85"/>
  <path d="M24 24C28 18 36 10 40 14C44 18 40 28 32 32C28 34 24 24 24 24Z" fill="#55204F" opacity="0.85"/>
  <path d="M24 24C21 28 14 36 12 34C10 32 14 26 20 24" fill="#55204F" opacity="0.6"/>
  <path d="M24 24C27 28 34 36 36 34C38 32 34 26 28 24" fill="#55204F" opacity="0.6"/>
  <line x1="24" y1="12" x2="24" y2="36" stroke="#55204F" stroke-width="1.5" stroke-linecap="round"/>
  <path d="M24 14C22 10 20 8 18 7" stroke="#55204F" stroke-width="1" stroke-linecap="round" fill="none"/>
  <path d="M24 14C26 10 28 8 30 7" stroke="#55204F" stroke-width="1" stroke-linecap="round" fill="none"/>
</svg>
